<svg width="195" height="41" viewBox="0 0 195 41" fill="none" xmlns="http://www.w3.org/2000/svg">
<path d="M53.2 16.4V13H65.7V16.4H61.3V27H57.6V16.4H53.2ZM68.7906 25.24C67.324 23.7867 66.5906 22.04 66.5906 20C66.5906 17.96 67.324 16.22 68.7906 14.78C70.2706 13.3267 72.1373 12.6 74.3906 12.6C76.644 12.6 78.504 13.3267 79.9706 14.78C81.4506 16.22 82.1906 17.96 82.1906 20C82.1906 22.04 81.4506 23.7867 79.9706 25.24C78.504 26.68 76.644 27.4 74.3906 27.4C72.1373 27.4 70.2706 26.68 68.7906 25.24ZM71.5706 17.1C70.8506 17.8333 70.4906 18.8 70.4906 20C70.4906 21.2 70.8506 22.1667 71.5706 22.9C72.2906 23.6333 73.2306 24 74.3906 24C75.5506 24 76.4906 23.6333 77.2106 22.9C77.9306 22.1667 78.2906 21.2 78.2906 20C78.2906 18.8 77.9306 17.8333 77.2106 17.1C76.4906 16.3667 75.5506 16 74.3906 16C73.2306 16 72.2906 16.3667 71.5706 17.1ZM85.7828 25.24C84.3161 23.7867 83.5828 22.04 83.5828 20C83.5828 17.96 84.3161 16.22 85.7828 14.78C87.2628 13.3267 89.1295 12.6 91.3828 12.6C93.6361 12.6 95.4961 13.3267 96.9628 14.78C98.4428 16.22 99.1828 17.96 99.1828 20C99.1828 22.04 98.4428 23.7867 96.9628 25.24C95.4961 26.68 93.6361 27.4 91.3828 27.4C89.1295 27.4 87.2628 26.68 85.7828 25.24ZM88.5628 17.1C87.8428 17.8333 87.4828 18.8 87.4828 20C87.4828 21.2 87.8428 22.1667 88.5628 22.9C89.2828 23.6333 90.2228 24 91.3828 24C92.5428 24 93.4828 23.6333 94.2028 22.9C94.9228 22.1667 95.2828 21.2 95.2828 20C95.2828 18.8 94.9228 17.8333 94.2028 17.1C93.4828 16.3667 92.5428 16 91.3828 16C90.2228 16 89.2828 16.3667 88.5628 17.1ZM100.075 16.4V13H112.575V16.4H108.175V27H104.475V16.4H100.075ZM114.066 27V13H117.766V18.2H123.166V13H126.866V27H123.166V21.6H117.766V27H114.066ZM135.062 27V13H145.662V16.4H138.762V19.1H144.062V22.3H138.762V27H135.062ZM145.559 27L149.359 13H156.159L159.959 27H156.159L155.459 24.2H150.059L149.359 27H145.559ZM150.859 21H154.659L153.459 16.4H152.059L150.859 21ZM161.253 27V13H164.953V27H161.253ZM167.562 27V13H174.562C176.228 13 177.575 13.4733 178.602 14.42C179.642 15.3533 180.162 16.5133 180.162 17.9C180.162 19.7 179.228 21.1 177.362 22.1L180.262 27H176.262L173.762 22.8H171.262V27H167.562ZM171.262 19.4H174.462C175.035 19.4 175.495 19.2533 175.842 18.96C176.188 18.6667 176.362 18.3133 176.362 17.9C176.362 17.4867 176.188 17.1333 175.842 16.84C175.495 16.5467 175.035 16.4 174.462 16.4H171.262V19.4ZM180.378 13H184.278L187.278 18.4H187.578L190.578 13H194.478L189.278 22V27H185.578V22L180.378 13Z" fill="#233348"/>
<circle cx="20.5" cy="20.5" r="20.5" fill="#458FF6"/>
<path d="M8.09794 16.1388C8.31663 14.8691 8.8663 13.6795 9.69152 12.69C10.5167 11.7005 11.5883 10.9461 12.7981 10.5029C14.008 10.0598 15.3133 9.94349 16.5824 10.1658C17.8515 10.3882 19.0396 10.9413 20.0267 11.7694C20.2893 11.9976 20.6256 12.1233 20.9735 12.1233C21.3215 12.1233 21.6577 11.9976 21.9204 11.7694C23.2996 10.5825 25.0719 9.95256 26.8909 10.0028C28.7098 10.053 30.4447 10.7798 31.7563 12.041C33.068 13.3022 33.8622 15.0072 33.9837 16.8228C34.1052 18.6384 33.5452 20.434 32.4133 21.8587C31.6863 22.7578 31.0051 23.6929 30.3721 24.6605L27.0504 30.0932C26.8418 30.439 26.5467 30.7246 26.1943 30.9219C25.8419 31.1192 25.4442 31.2214 25.0403 31.2186V31.2186C24.7259 31.2188 24.4146 31.1555 24.1254 31.0322C23.8361 30.9089 23.5748 30.7283 23.3572 30.5013C23.1396 30.2743 22.9703 30.0056 22.8594 29.7114C22.7485 29.4171 22.6984 29.1035 22.712 28.7893L22.7818 26.7094C22.7947 26.466 22.7572 26.2226 22.6716 25.9943C22.586 25.7661 22.4542 25.5581 22.2844 25.3832C22.1146 25.2083 21.9106 25.0704 21.685 24.9781C21.4594 24.8858 21.2172 24.841 20.9735 24.8467V24.8467C20.7372 24.8477 20.5034 24.8959 20.286 24.9887C20.0686 25.0815 19.8719 25.2168 19.7077 25.3868C19.5435 25.5569 19.415 25.758 19.3298 25.9785C19.2446 26.199 19.2045 26.4343 19.2118 26.6706L19.2738 28.7505C19.2875 29.0647 19.2373 29.3783 19.1264 29.6726C19.0155 29.9668 18.8462 30.2355 18.6286 30.4625C18.411 30.6895 18.1497 30.8701 17.8605 30.9934C17.5712 31.1166 17.26 31.18 16.9455 31.1797V31.1797C16.543 31.1813 16.1469 31.0784 15.7959 30.8812C15.445 30.6839 15.1512 30.3991 14.9432 30.0544L11.6603 24.6915C11.0272 23.7315 10.346 22.8042 9.6191 21.9131C8.97262 21.1123 8.50287 20.1839 8.2407 19.1887C7.97853 18.1935 7.92987 17.1541 8.09794 16.1388V16.1388Z" fill="#EBEEF2"/>
<path d="M12.3899 15.161C12.2681 15.1606 12.1475 15.1356 12.0355 15.0876C11.9235 15.0396 11.8224 14.9696 11.738 14.8816C11.5683 14.7102 11.4731 14.4787 11.4731 14.2375C11.4731 13.9962 11.5683 13.7648 11.738 13.5933C12.6834 12.6687 13.9546 12.153 15.277 12.1575C15.5044 12.1785 15.7157 12.2836 15.8695 12.4523C16.0233 12.621 16.1086 12.8411 16.1086 13.0694C16.1086 13.2977 16.0233 13.5178 15.8695 13.6865C15.7157 13.8552 15.5044 13.9604 15.277 13.9813C14.4332 13.9782 13.6219 14.3071 13.0186 14.8972C12.8517 15.0641 12.626 15.1589 12.3899 15.161V15.161Z" fill="white"/>
<path d="M11.1402 18.1256C11.021 18.1256 10.9029 18.1021 10.7927 18.0565C10.6826 18.0108 10.5825 17.9439 10.4981 17.8596C10.4138 17.7753 10.3469 17.6752 10.3013 17.565C10.2557 17.4549 10.2322 17.3368 10.2322 17.2175V17.2175C10.2244 17.1713 10.2244 17.1241 10.2322 17.0778C10.2391 16.9585 10.2695 16.8417 10.3217 16.7342C10.3738 16.6267 10.4467 16.5305 10.5361 16.4512C10.6255 16.3719 10.7297 16.311 10.8427 16.272C10.9557 16.2331 11.0753 16.2168 11.1946 16.2241C11.4348 16.2382 11.6598 16.3462 11.821 16.5248C11.9822 16.7035 12.0666 16.9384 12.056 17.1787V17.2253C12.055 17.3446 12.0305 17.4624 11.9839 17.5722C11.9374 17.682 11.8696 17.7815 11.7846 17.8651C11.6995 17.9487 11.5989 18.0148 11.4883 18.0594C11.3778 18.1041 11.2595 18.1266 11.1402 18.1256Z" fill="white"/>
</svg>
